# This file uses centimeters as units for non-parametric coordinates.

mtllib wall.mtl
g default
v 1.454198 -0.011517 35.228643
v 1.454198 -0.011517 36.228643
v 1.454198 3.509801 35.228643
v 1.454198 3.509801 36.228643
v 35.848468 3.509801 35.228643
v 35.848468 3.509801 36.228643
v 35.848468 -0.011517 35.228643
v 35.848468 -0.011517 36.228643
v -36.148950 -0.011517 35.228643
v -36.148950 -0.011517 36.228643
v -36.148950 3.509801 35.228643
v -36.148950 3.509801 36.228643
v -6.898258 3.509801 35.228643
v -6.898258 3.509801 36.228643
v -6.898258 -0.011517 35.228643
v -6.898258 -0.011517 36.228643
v -36.131555 -0.011517 35.930284
v -35.131555 -0.011517 35.930284
v -36.131555 3.509801 35.930284
v -35.131555 3.509801 35.930284
v -36.131555 3.509801 -35.375777
v -35.131555 3.509801 -35.375777
v -36.131555 -0.011517 -35.375777
v -35.131555 -0.011517 -35.375777
v 34.848445 -0.011517 35.930284
v 35.848445 -0.011517 35.930284
v 34.848445 3.509801 35.930284
v 35.848445 3.509801 35.930284
v 34.848445 3.509801 -35.375777
v 35.848445 3.509801 -35.375777
v 34.848445 -0.011517 -35.375777
v 35.848445 -0.011517 -35.375777
v 1.454198 -0.011517 -36.146277
v 1.454198 -0.011517 -35.146277
v 1.454198 3.509801 -36.146277
v 1.454198 3.509801 -35.146277
v 35.848468 3.509801 -36.146277
v 35.848468 3.509801 -35.146277
v 35.848468 -0.011517 -36.146277
v 35.848468 -0.011517 -35.146277
v -36.148950 -0.011517 -36.146277
v -36.148950 -0.011517 -35.146277
v -36.148950 3.509801 -36.146277
v -36.148950 3.509801 -35.146277
v -6.898258 3.509801 -36.146277
v -6.898258 3.509801 -35.146277
v -6.898258 -0.011517 -36.146277
v -6.898258 -0.011517 -35.146277
vt 0.345104 0.482417
vt 0.345104 0.001992
vt 0.394290 0.482417
vt 0.394290 0.001992
vt 0.401080 0.482417
vt 0.401080 0.001992
vt 0.450266 0.482417
vt 0.450266 0.001992
vt 0.648457 0.410571
vt 0.648457 0.001992
vt 0.697643 0.410571
vt 0.697643 0.001992
vt 0.704433 0.410571
vt 0.704433 0.001992
vt 0.753619 0.410571
vt 0.753619 0.001992
vt 0.832060 0.414269
vt 0.846029 0.414269
vt 0.832060 0.463455
vt 0.846029 0.463455
vt 0.826376 0.463455
vt 0.812408 0.463455
vt 0.826376 0.414269
vt 0.812408 0.414269
vt 0.792755 0.414269
vt 0.806724 0.414269
vt 0.792755 0.463455
vt 0.806724 0.463455
vt 0.787071 0.463456
vt 0.773103 0.463456
vt 0.787071 0.414269
vt 0.773103 0.414269
vt 0.496781 0.482417
vt 0.496781 0.001992
vt 0.545967 0.482417
vt 0.545967 0.001992
vt 0.552756 0.482417
vt 0.552756 0.001992
vt 0.601943 0.482417
vt 0.601943 0.001992
vt 0.800134 0.410571
vt 0.800134 0.001992
vt 0.849320 0.410571
vt 0.849320 0.001992
vt 0.856109 0.410571
vt 0.856109 0.001992
vt 0.905296 0.410571
vt 0.905296 0.001992
vt 0.305379 0.001992
vt 0.319347 0.001992
vt 0.305379 0.482418
vt 0.319347 0.482418
vt 0.325242 0.001992
vt 0.339210 0.001992
vt 0.325242 0.482417
vt 0.339210 0.482417
vt 0.608732 0.001992
vt 0.622700 0.001992
vt 0.608732 0.410571
vt 0.622700 0.410571
vt 0.628595 0.001992
vt 0.642563 0.001992
vt 0.628595 0.410571
vt 0.642563 0.410571
vt 0.001846 0.001992
vt 0.015814 0.001992
vt 0.001846 0.998008
vt 0.015814 0.998008
vt 0.035857 0.998008
vt 0.021889 0.998008
vt 0.035857 0.001992
vt 0.021889 0.001992
vt 0.153703 0.001992
vt 0.167671 0.001992
vt 0.153703 0.998008
vt 0.167671 0.998008
vt 0.187533 0.998008
vt 0.173565 0.998008
vt 0.187533 0.001992
vt 0.173565 0.001992
vt 0.457056 0.001992
vt 0.471024 0.001992
vt 0.457056 0.482418
vt 0.471024 0.482418
vt 0.476918 0.001992
vt 0.490886 0.001992
vt 0.476918 0.482417
vt 0.490886 0.482417
vt 0.760409 0.001992
vt 0.774377 0.001992
vt 0.760409 0.410571
vt 0.774377 0.410571
vt 0.780271 0.001992
vt 0.794239 0.001992
vt 0.780271 0.410571
vt 0.794239 0.410571
vt 0.910670 0.001992
vt 0.924638 0.001992
vt 0.910670 0.051178
vt 0.924638 0.051178
vt 0.891018 0.414269
vt 0.904986 0.414269
vt 0.891018 0.463455
vt 0.904986 0.463455
vt 0.871365 0.414269
vt 0.885333 0.414269
vt 0.871365 0.463455
vt 0.885333 0.463455
vt 0.851713 0.414269
vt 0.865681 0.414269
vt 0.851713 0.463455
vt 0.865681 0.463455
vt 0.090937 0.001992
vt 0.090937 0.998008
vt 0.041751 0.001992
vt 0.041751 0.998008
vt 0.097727 0.998008
vt 0.097727 0.001992
vt 0.146913 0.998008
vt 0.146913 0.001992
vt 0.242614 0.001992
vt 0.242614 0.998008
vt 0.193427 0.001992
vt 0.193427 0.998008
vt 0.249403 0.998008
vt 0.249403 0.001992
vt 0.298590 0.998008
vt 0.298590 0.001992
vt 0.753451 0.414269
vt 0.767419 0.414269
vt 0.753451 0.463456
vt 0.767419 0.463456
vt 0.733798 0.414269
vt 0.747766 0.414269
vt 0.733798 0.463455
vt 0.747766 0.463455
vt 0.714146 0.414269
vt 0.728114 0.414269
vt 0.714146 0.463455
vt 0.728114 0.463455
vt 0.694493 0.414269
vt 0.708461 0.414269
vt 0.694493 0.463455
vt 0.708461 0.463455
vn -1.000000 0.000000 0.000000
vn -1.000000 0.000000 0.000000
vn -1.000000 0.000000 0.000000
vn -1.000000 0.000000 0.000000
vn 0.000000 1.000000 0.000000
vn 0.000000 1.000000 0.000000
vn 0.000000 1.000000 0.000000
vn 0.000000 1.000000 0.000000
vn 1.000000 0.000000 -0.000000
vn 1.000000 0.000000 -0.000000
vn 1.000000 0.000000 -0.000000
vn 1.000000 0.000000 -0.000000
vn 0.000000 -1.000000 0.000000
vn 0.000000 -1.000000 0.000000
vn 0.000000 -1.000000 0.000000
vn 0.000000 -1.000000 0.000000
vn 0.000000 0.000000 1.000000
vn 0.000000 0.000000 1.000000
vn 0.000000 0.000000 1.000000
vn 0.000000 0.000000 1.000000
vn -0.000000 0.000000 -1.000000
vn -0.000000 0.000000 -1.000000
vn -0.000000 0.000000 -1.000000
vn -0.000000 0.000000 -1.000000
vn -1.000000 0.000000 0.000000
vn -1.000000 0.000000 0.000000
vn -1.000000 0.000000 0.000000
vn -1.000000 0.000000 0.000000
vn 0.000000 1.000000 0.000000
vn 0.000000 1.000000 0.000000
vn 0.000000 1.000000 0.000000
vn 0.000000 1.000000 0.000000
vn 1.000000 0.000000 -0.000000
vn 1.000000 0.000000 -0.000000
vn 1.000000 0.000000 -0.000000
vn 1.000000 0.000000 -0.000000
vn 0.000000 -1.000000 0.000000
vn 0.000000 -1.000000 0.000000
vn 0.000000 -1.000000 0.000000
vn 0.000000 -1.000000 0.000000
vn 0.000000 0.000000 1.000000
vn 0.000000 0.000000 1.000000
vn 0.000000 0.000000 1.000000
vn 0.000000 0.000000 1.000000
vn -0.000000 0.000000 -1.000000
vn -0.000000 0.000000 -1.000000
vn -0.000000 0.000000 -1.000000
vn -0.000000 0.000000 -1.000000
vn 0.000000 0.000000 1.000000
vn 0.000000 0.000000 1.000000
vn 0.000000 0.000000 1.000000
vn 0.000000 0.000000 1.000000
vn 0.000000 1.000000 0.000000
vn 0.000000 1.000000 0.000000
vn 0.000000 1.000000 0.000000
vn 0.000000 1.000000 0.000000
vn -0.000000 0.000000 -1.000000
vn -0.000000 0.000000 -1.000000
vn -0.000000 0.000000 -1.000000
vn -0.000000 0.000000 -1.000000
vn 0.000000 -1.000000 0.000000
vn 0.000000 -1.000000 0.000000
vn 0.000000 -1.000000 0.000000
vn 0.000000 -1.000000 0.000000
vn 1.000000 0.000000 -0.000000
vn 1.000000 0.000000 -0.000000
vn 1.000000 0.000000 -0.000000
vn 1.000000 0.000000 -0.000000
vn -1.000000 0.000000 0.000000
vn -1.000000 0.000000 0.000000
vn -1.000000 0.000000 0.000000
vn -1.000000 0.000000 0.000000
vn 0.000000 0.000000 1.000000
vn 0.000000 0.000000 1.000000
vn 0.000000 0.000000 1.000000
vn 0.000000 0.000000 1.000000
vn 0.000000 1.000000 0.000000
vn 0.000000 1.000000 0.000000
vn 0.000000 1.000000 0.000000
vn 0.000000 1.000000 0.000000
vn -0.000000 0.000000 -1.000000
vn -0.000000 0.000000 -1.000000
vn -0.000000 0.000000 -1.000000
vn -0.000000 0.000000 -1.000000
vn 0.000000 -1.000000 0.000000
vn 0.000000 -1.000000 0.000000
vn 0.000000 -1.000000 0.000000
vn 0.000000 -1.000000 0.000000
vn 1.000000 0.000000 -0.000000
vn 1.000000 0.000000 -0.000000
vn 1.000000 0.000000 -0.000000
vn 1.000000 0.000000 -0.000000
vn -1.000000 0.000000 0.000000
vn -1.000000 0.000000 0.000000
vn -1.000000 0.000000 0.000000
vn -1.000000 0.000000 0.000000
vn -1.000000 0.000000 0.000000
vn -1.000000 0.000000 0.000000
vn -1.000000 0.000000 0.000000
vn -1.000000 0.000000 0.000000
vn 0.000000 1.000000 0.000000
vn 0.000000 1.000000 0.000000
vn 0.000000 1.000000 0.000000
vn 0.000000 1.000000 0.000000
vn 1.000000 0.000000 -0.000000
vn 1.000000 0.000000 -0.000000
vn 1.000000 0.000000 -0.000000
vn 1.000000 0.000000 -0.000000
vn 0.000000 -1.000000 0.000000
vn 0.000000 -1.000000 0.000000
vn 0.000000 -1.000000 0.000000
vn 0.000000 -1.000000 0.000000
vn 0.000000 0.000000 1.000000
vn 0.000000 0.000000 1.000000
vn 0.000000 0.000000 1.000000
vn 0.000000 0.000000 1.000000
vn -0.000000 0.000000 -1.000000
vn -0.000000 0.000000 -1.000000
vn -0.000000 0.000000 -1.000000
vn -0.000000 0.000000 -1.000000
vn -1.000000 0.000000 0.000000
vn -1.000000 0.000000 0.000000
vn -1.000000 0.000000 0.000000
vn -1.000000 0.000000 0.000000
vn 0.000000 1.000000 0.000000
vn 0.000000 1.000000 0.000000
vn 0.000000 1.000000 0.000000
vn 0.000000 1.000000 0.000000
vn 1.000000 0.000000 -0.000000
vn 1.000000 0.000000 -0.000000
vn 1.000000 0.000000 -0.000000
vn 1.000000 0.000000 -0.000000
vn 0.000000 -1.000000 0.000000
vn 0.000000 -1.000000 0.000000
vn 0.000000 -1.000000 0.000000
vn 0.000000 -1.000000 0.000000
vn 0.000000 0.000000 1.000000
vn 0.000000 0.000000 1.000000
vn 0.000000 0.000000 1.000000
vn 0.000000 0.000000 1.000000
vn -0.000000 0.000000 -1.000000
vn -0.000000 0.000000 -1.000000
vn -0.000000 0.000000 -1.000000
vn -0.000000 0.000000 -1.000000
s 1
g group5
usemtl initialShadingGroup
f 1/97/1 2/98/2 3/99/3
f 3/99/3 2/98/2 4/100/4
s 2
f 3/49/5 4/50/6 5/51/7
f 5/51/7 4/50/6 6/52/8
s 3
f 5/101/9 6/102/10 7/103/11
f 7/103/11 6/102/10 8/104/12
s 4
f 7/53/13 8/54/14 1/55/15
f 1/55/15 8/54/14 2/56/16
s 5
f 2/1/17 8/2/18 4/3/19
f 4/3/19 8/2/18 6/4/20
s 6
f 7/5/21 1/6/22 5/7/23
f 5/7/23 1/6/22 3/8/24
s 7
f 9/105/25 10/106/26 11/107/27
f 11/107/27 10/106/26 12/108/28
s 8
f 11/57/29 12/58/30 13/59/31
f 13/59/31 12/58/30 14/60/32
s 9
f 13/109/33 14/110/34 15/111/35
f 15/111/35 14/110/34 16/112/36
s 10
f 15/61/37 16/62/38 9/63/39
f 9/63/39 16/62/38 10/64/40
s 11
f 10/9/41 16/10/42 12/11/43
f 12/11/43 16/10/42 14/12/44
s 12
f 15/13/45 9/14/46 13/15/47
f 13/15/47 9/14/46 11/16/48
s 13
f 17/17/49 18/18/50 19/19/51
f 19/19/51 18/18/50 20/20/52
s 14
f 19/65/53 20/66/54 21/67/55
f 21/67/55 20/66/54 22/68/56
s 15
f 21/21/57 22/22/58 23/23/59
f 23/23/59 22/22/58 24/24/60
s 16
f 23/69/61 24/70/62 17/71/63
f 17/71/63 24/70/62 18/72/64
s 17
f 18/113/65 24/114/66 20/115/67
f 20/115/67 24/114/66 22/116/68
s 18
f 23/117/69 17/118/70 21/119/71
f 21/119/71 17/118/70 19/120/72
s 19
f 25/25/73 26/26/74 27/27/75
f 27/27/75 26/26/74 28/28/76
s 20
f 27/73/77 28/74/78 29/75/79
f 29/75/79 28/74/78 30/76/80
s 21
f 29/29/81 30/30/82 31/31/83
f 31/31/83 30/30/82 32/32/84
s 22
f 31/77/85 32/78/86 25/79/87
f 25/79/87 32/78/86 26/80/88
s 23
f 26/121/89 32/122/90 28/123/91
f 28/123/91 32/122/90 30/124/92
s 24
f 31/125/93 25/126/94 29/127/95
f 29/127/95 25/126/94 27/128/96
s 25
f 33/129/97 34/130/98 35/131/99
f 35/131/99 34/130/98 36/132/100
s 26
f 35/81/101 36/82/102 37/83/103
f 37/83/103 36/82/102 38/84/104
s 27
f 37/133/105 38/134/106 39/135/107
f 39/135/107 38/134/106 40/136/108
s 28
f 39/85/109 40/86/110 33/87/111
f 33/87/111 40/86/110 34/88/112
s 29
f 34/33/113 40/34/114 36/35/115
f 36/35/115 40/34/114 38/36/116
s 30
f 39/37/117 33/38/118 37/39/119
f 37/39/119 33/38/118 35/40/120
s 31
f 41/137/121 42/138/122 43/139/123
f 43/139/123 42/138/122 44/140/124
s 32
f 43/89/125 44/90/126 45/91/127
f 45/91/127 44/90/126 46/92/128
s 33
f 45/141/129 46/142/130 47/143/131
f 47/143/131 46/142/130 48/144/132
s 34
f 47/93/133 48/94/134 41/95/135
f 41/95/135 48/94/134 42/96/136
s 35
f 42/41/137 48/42/138 44/43/139
f 44/43/139 48/42/138 46/44/140
s 36
f 47/45/141 41/46/142 45/47/143
f 45/47/143 41/46/142 43/48/144
